[img]http://img843.imageshack.us/img843/4631/jackreacher2012.jpg[/img]

[img]http://img267.imageshack.us/img267/4632/screensx.png[/img]

[img]http://img189.imageshack.us/img189/8479/32531166.png[/img]
[img]http://img18.imageshack.us/img18/6942/48890276.png[/img]
[img]http://img62.imageshack.us/img62/4189/36336399.png[/img]
[img]http://img600.imageshack.us/img600/2104/42866025.png[/img]
[img]http://img22.imageshack.us/img22/1787/39420594.png[/img]
[img]http://img94.imageshack.us/img94/3686/22934966.png[/img]
[img]http://img259.imageshack.us/img259/24/94153301.png[/img]
[img]http://img593.imageshack.us/img593/6411/92404780.png[/img]
[img]http://img585.imageshack.us/img585/8026/48749199.png[/img]
[img]http://img248.imageshack.us/img248/5088/52361625.png[/img]


[color=red]Rip Information[/color]
Code:
]Format                                   : Matroska
Format version                           : Version 4 / Version 2
File size                                : 1.19 GiB
Duration                                 : 2h 10mn
Overall bit rate                         : 1 304 Kbps
Movie name                               : Jack Reacher (2012).BluRay Rip.720p.[Dual Audio].5.1 [Hindi+English].by K@rtik [ExD Exclusive]

[color=red]Video[/color]
Code:
Format                                   : AVC
Format/Info                              : Advanced Video Codec
Format profile                           : High@L3.1
Format settings, CABAC                   : Yes
Format settings, ReFrames                : 5 frames
Codec ID                                 : V_MPEG4/ISO/AVC
Duration                                 : 2h 10mn
Bit rate                                 : 535 Kbps
Width                                    : 1 264 pixels
Height                                   : 544 pixels
Display aspect ratio                     : 2.35:1
Frame rate mode                          : Constant
Frame rate                               : 23.976 fps
Color space                              : YUV
Chroma subsampling                       : 4:2:0
Bit depth                                : 8 bits
Scan type                                : Progressive
Bits/(Pixel*Frame)                       : 0.032
Stream size                              : 476 MiB (39%)
Title                                    : K@rtik
Writing library                          : x264 core 130 r2273 b3065e6

[color=red]Audio 1[/color]
Code:
Format                                   : AC-3
Format/Info                              : Audio Coding 3
Mode extension                           : CM (complete main)
Format settings, Endianness              : Big
Codec ID                                 : A_AC3
Duration                                 : 2h 10mn
Bit rate mode                            : Constant
Bit rate                                 : 320 Kbps
Channel(s)                               : 6 channels
Channel positions                        : Front: L C R, Side: L R, LFE
Sampling rate                            : 48.0 KHz
Bit depth                                : 16 bits
Compression mode                         : Lossy
Stream size                              : 298 MiB (25%)
Title                                    : K@rtik
Language                                 : Hindi

[color=red]Audio 2[/color]
Code:
Format                                   : AC-3
Format/Info                              : Audio Coding 3
Mode extension                           : CM (complete main)
Format settings, Endianness              : Big
Codec ID                                 : A_AC3
Duration                                 : 2h 10mn
Bit rate mode                            : Constant
Bit rate                                 : 448 Kbps
Channel(s)                               : 6 channels
Channel positions                        : Front: L C R, Side: L R, LFE
Sampling rate                            : 48.0 KHz
Bit depth                                : 16 bits
Compression mode                         : Lossy
Delay relative to video                  : 1s 0ms
Stream size                              : 418 MiB (34%)
Title                                    : K@rtik
Language                                 : Hindi
Default                                  : Yes

[color=red]==Team EXD Exclusive==[/color]

[color=black]Original DVD Untuched Hindi Audio[/color]

[color=blue]Sample In Torrent[/color]

[img]http://i878.photobucket.com/albums/ab341/djrajiv/30m7gcojpg.gif[/img]

[img]http://i1227.photobucket.com/albums/ee432/djrajiv2009/48655751775352955506.gif[/img]

[img]http://img526.imageshack.us/img526/5956/hf7asze69mv.png[/img]